<?plantuml 1.2026.2?><svg xmlns="http://www.w3.org/2000/svg" xmlns:xlink="http://www.w3.org/1999/xlink" contentStyleType="text/css" data-diagram-type="SEQUENCE" height="399px" preserveAspectRatio="none" style="width:452px;height:399px;background:#FFFFFF;" version="1.1" viewBox="0 0 452 399" width="452px" zoomAndPan="magnify"><defs/><g><rect fill="#FFFFFF" height="201.7969" style="stroke:#000000;stroke-width:1;" width="431.6904" x="15" y="99.2969"/><g class="participant-lifeline" data-entity-uid="part1" data-qualified-name="Human" id="part1-lifeline"><g><title>Human</title><rect fill="#000000" fill-opacity="0.00000" height="235.7969" width="8" x="49.2451" y="82.2969"/><line style="stroke:#000000;stroke-width:1;stroke-dasharray:5,5;" x1="53" x2="53" y1="82.2969" y2="318.0938"/></g></g><g class="participant-lifeline" data-entity-uid="part2" data-qualified-name="LLMs" id="part2-lifeline"><g><title>LLMs</title><rect fill="#000000" fill-opacity="0.00000" height="235.7969" width="8" x="307.8076" y="82.2969"/><line style="stroke:#000000;stroke-width:1;stroke-dasharray:5,5;" x1="311.3213" x2="311.3213" y1="82.2969" y2="318.0938"/></g></g><g class="participant participant-head" data-entity-uid="part1" data-qualified-name="Human" id="part1-head"><text fill="#000000" font-family="Hack" font-size="14" lengthAdjust="spacing" textLength="50.4902" x="25" y="78.9951">Human</text><ellipse cx="53.2451" cy="14" fill="#FFFFFF" rx="8" ry="8" style="stroke:#000000;stroke-width:1;"/><path d="M53.2451,22 L53.2451,49 M40.2451,30 L66.2451,30 M53.2451,49 L40.2451,64 M53.2451,49 L66.2451,64" fill="none" style="stroke:#000000;stroke-width:1;"/></g><g class="participant participant-tail" data-entity-uid="part1" data-qualified-name="Human" id="part1-tail"><text fill="#000000" font-family="Hack" font-size="14" lengthAdjust="spacing" textLength="50.4902" x="25" y="330.0889">Human</text><ellipse cx="53.2451" cy="342.3906" fill="#FFFFFF" rx="8" ry="8" style="stroke:#000000;stroke-width:1;"/><path d="M53.2451,350.3906 L53.2451,377.3906 M40.2451,358.3906 L66.2451,358.3906 M53.2451,377.3906 L40.2451,392.3906 M53.2451,377.3906 L66.2451,392.3906" fill="none" style="stroke:#000000;stroke-width:1;"/></g><g class="participant participant-head" data-entity-uid="part2" data-qualified-name="LLMs" id="part2-head"><rect fill="#FFFFFF" height="30.2969" style="stroke:#000000;stroke-width:1;" width="48.9727" x="289.3213" y="47"/><rect fill="#FFFFFF" height="30.2969" style="stroke:#000000;stroke-width:1;" width="48.9727" x="285.3213" y="51"/><text fill="#000000" font-family="Hack" font-size="14" lengthAdjust="spacing" textLength="34.9727" x="292.3213" y="70.9951">LLMs</text></g><g class="participant participant-tail" data-entity-uid="part2" data-qualified-name="LLMs" id="part2-tail"><rect fill="#FFFFFF" height="30.2969" style="stroke:#000000;stroke-width:1;" width="48.9727" x="289.3213" y="317.0938"/><rect fill="#FFFFFF" height="30.2969" style="stroke:#000000;stroke-width:1;" width="48.9727" x="285.3213" y="321.0938"/><text fill="#000000" font-family="Hack" font-size="14" lengthAdjust="spacing" textLength="34.9727" x="292.3213" y="341.0889">LLMs</text></g><path d="M15,99.2969 L91.624,99.2969 L91.624,106.4297 L81.624,116.4297 L15,116.4297 L15,99.2969" fill="#FFFFFF" style="stroke:#000000;stroke-width:1;"/><rect fill="none" height="201.7969" style="stroke:#000000;stroke-width:1;" width="431.6904" x="15" y="99.2969"/><text fill="#000000" font-family="Hack" font-size="13" font-weight="bold" lengthAdjust="spacing" textLength="31.624" x="30" y="112.3638">loop</text><text fill="#000000" font-family="Hack" font-size="11" font-weight="bold" lengthAdjust="spacing" textLength="264.7681" x="106.624" y="111.5073">[Baseline, Single, Concurrent, Distributed]</text><g class="message" data-entity-1="part1" data-entity-2="part1" id="msg1"><line style="stroke:#000000;stroke-width:1;" x1="53.2451" x2="95.2451" y1="137.5625" y2="137.5625"/><line style="stroke:#000000;stroke-width:1;" x1="95.2451" x2="95.2451" y1="137.5625" y2="150.5625"/><line style="stroke:#000000;stroke-width:1;" x1="54.2451" x2="95.2451" y1="150.5625" y2="150.5625"/><polygon fill="#000000" points="64.2451,146.5625,54.2451,150.5625,64.2451,154.5625,60.2451,150.5625" style="stroke:#000000;stroke-width:1;"/><text fill="#000000" font-family="Hack" font-size="13" lengthAdjust="spacing" textLength="126.8262" x="60.2451" y="132.4966">Specification phase</text></g><g class="message" data-entity-1="part1" data-entity-2="part2" id="msg2"><polygon fill="#000000" points="299.8076,175.6953,309.8076,179.6953,299.8076,183.6953,303.8076,179.6953" style="stroke:#000000;stroke-width:1;"/><line style="stroke:#000000;stroke-width:1;" x1="53.2451" x2="305.8076" y1="179.6953" y2="179.6953"/><text fill="#000000" font-family="Hack" font-size="13" lengthAdjust="spacing" textLength="188.3604" x="60.2451" y="174.6294">Contracts, Training Test Sets</text></g><g class="message" data-entity-1="part2" data-entity-2="part2" id="msg3"><line style="stroke:#000000;stroke-width:1;" x1="311.8076" x2="353.8076" y1="208.8281" y2="208.8281"/><line style="stroke:#000000;stroke-width:1;" x1="353.8076" x2="353.8076" y1="208.8281" y2="221.8281"/><line style="stroke:#000000;stroke-width:1;" x1="312.8076" x2="353.8076" y1="221.8281" y2="221.8281"/><polygon fill="#000000" points="322.8076,217.8281,312.8076,221.8281,322.8076,225.8281,318.8076,221.8281" style="stroke:#000000;stroke-width:1;"/><text fill="#000000" font-family="Hack" font-size="13" lengthAdjust="spacing" textLength="115.8828" x="318.8076" y="203.7622">Generation phase</text></g><g class="message" data-entity-1="part2" data-entity-2="part1" id="msg4"><polygon fill="#000000" points="64.2451,246.9609,54.2451,250.9609,64.2451,254.9609,60.2451,250.9609" style="stroke:#000000;stroke-width:1;"/><line style="stroke:#000000;stroke-width:1;" x1="58.2451" x2="310.8076" y1="250.9609" y2="250.9609"/><text fill="#000000" font-family="Hack" font-size="13" lengthAdjust="spacing" textLength="89.2671" x="70.2451" y="245.895">Working code</text></g><g class="message" data-entity-1="part1" data-entity-2="part1" id="msg5"><line style="stroke:#000000;stroke-width:1;" x1="53.2451" x2="95.2451" y1="280.0938" y2="280.0938"/><line style="stroke:#000000;stroke-width:1;" x1="95.2451" x2="95.2451" y1="280.0938" y2="293.0938"/><line style="stroke:#000000;stroke-width:1;" x1="54.2451" x2="95.2451" y1="293.0938" y2="293.0938"/><polygon fill="#000000" points="64.2451,289.0938,54.2451,293.0938,64.2451,297.0938,60.2451,293.0938" style="stroke:#000000;stroke-width:1;"/><text fill="#000000" font-family="Hack" font-size="13" lengthAdjust="spacing" textLength="244.5625" x="60.2451" y="275.0278">Evaluation phase: Cost, Time, Quality</text></g><?plantuml-src NO-nRiCm34HtVWMxEp_WeKERe1cSeR21pAhC9aGaqf2e0FtxIWcG69autF7TtPkTAH965GLmtZJXlaGdu3K4yiOg6OVXa062we8VBbDWeGv7bbEezrF5bvH8hCCjPqlyKuncW1i7D-ztO8_ZGfv_sRi6nULSIKzFY-WRor9jaJkSacEf4JXHDXp9CZJFq_j5GcdDUkXtQ8z7JPT6y3hJIvkgxgukbDL_IyzrmyInhlekBh3z0P3C_m00?></g></svg>